<svg height="22" viewBox="0 0 73 22" width="73" xmlns="http://www.w3.org/2000/svg"><g fill="#020303" fill-rule="evenodd" transform=""><path d="m64.4223149 15.1765059v4.6790054c0 1.4696815-1.0394062 2.1444887-2.4492976 2.1444887h-.53081l-.0013521-6.7993667-8.4778922-14.38581848h1.3901889c1.4819409 0 2.3478874.37539951 3.1272972 1.71133543l6.1500937 10.57729925 6.0502287-10.80375483c.6785791-1.21206928 1.3598625-1.48487985 2.1891081-1.48487985h.6486389z"/><path d="m56.8441455 21.1851852c-2.0556309 0-2.5805328-.6710062-3.2195111-2.0726263l-6.3245698-13.86933021-3.9099835 8.94413341h4.8344348c1.6699886.0011212 2.2227049.7767677 2.4346953 1.6493935l-7.9907997.0016817c-1.4076317 3.2595467-1.6337172 3.7539724-1.6337172 3.7539724-.5782754 1.3296798-1.3187385 1.5927755-2.1011111 1.5927755h-.6372869l9.4480462-21.1851852h.3931596l9.7143498 21.1851852z"/><path d="m36.6666667 20.3073697c-.4378154 1.2906688-1.3289491 1.6926303-2.8654122 1.6926303h-9.3568101v-21.18518518h.2151721.4006459c1.1008891 0 2.2893786.50832376 2.2893786 2.12705423l.0011207 17.36550065z"/><path d="m11.3201359 22.0000383c-6.68742479 0-11.32017424-4.9324-11.32017424-10.9167826 0-5.99356527 4.63274945-10.92252179 11.32017424-10.92252179 6.688 0 11.3218998 4.92895652 11.3218998 10.92252179 0 5.9855304-4.6338998 10.9167826-11.3218998 10.9167826zm.002109-20.32876526c-4.80951636 0-8.18323314 4.22629566-8.18323314 9.42097396 0 5.1916173 3.37371678 9.4190608 8.18323314 9.4190608 4.8112418 0 8.1830414-4.2274435 8.1830414-9.4190608 0-5.1946783-3.3717996-9.42097396-8.1830414-9.42097396z"/></g></svg>